<svg width="56" height="56" viewBox="0 0 56 56" fill="none" xmlns="http://www.w3.org/2000/svg">
<path d="M30.3987 4.669C32.1014 4.66247 33.8041 4.67958 35.5063 4.72033L35.959 4.73667C36.4817 4.75533 36.9973 4.77867 37.6203 4.80667C40.103 4.92333 41.797 5.31533 43.2833 5.89167C44.8233 6.48433 46.1207 7.287 47.418 8.58433C48.6042 9.75008 49.5223 11.1602 50.1083 12.7167C50.6847 14.203 51.0767 15.8993 51.1933 18.382C51.2213 19.0027 51.2447 19.5207 51.2633 20.0433L51.2773 20.496C51.3188 22.1974 51.3367 23.8994 51.331 25.6013L51.3333 27.342V30.3987C51.3391 32.1014 51.3212 33.8041 51.2797 35.5063L51.2657 35.959C51.247 36.4817 51.2237 36.9973 51.1957 37.6203C51.079 40.103 50.6823 41.797 50.1083 43.2833C49.5242 44.8414 48.6059 46.2527 47.418 47.418C46.2512 48.6041 44.8404 49.5221 43.2833 50.1083C41.797 50.6847 40.103 51.0767 37.6203 51.1933C36.9973 51.2213 36.4817 51.2447 35.959 51.2633L35.5063 51.2773C33.8041 51.3188 32.1014 51.3367 30.3987 51.331L28.658 51.3333H25.6037C23.9009 51.3391 22.1982 51.3212 20.496 51.2797L20.0433 51.2657C19.4894 51.2456 18.9356 51.2223 18.382 51.1957C15.8993 51.079 14.2053 50.6823 12.7167 50.1083C11.1596 49.5235 9.74922 48.6053 8.58433 47.418C7.39677 46.252 6.47786 44.841 5.89167 43.2833C5.31533 41.797 4.92333 40.103 4.80667 37.6203C4.78068 37.0667 4.75735 36.5129 4.73667 35.959L4.725 35.5063C4.68198 33.8041 4.66254 32.1014 4.66667 30.3987V25.6013C4.66016 23.8994 4.67727 22.1975 4.718 20.496L4.73433 20.0433C4.753 19.5207 4.77633 19.0027 4.80433 18.382C4.921 15.897 5.313 14.2053 5.88933 12.7167C6.47587 11.1594 7.39658 9.7497 8.58667 8.58667C9.75075 7.39842 11.1602 6.47867 12.7167 5.89167C14.2053 5.31533 15.897 4.92333 18.382 4.80667L20.0433 4.73667L20.496 4.725C22.1974 4.682 23.8994 4.66256 25.6013 4.66667L30.3987 4.669ZM28 16.3357C26.4542 16.3138 24.9194 16.5994 23.4849 17.1758C22.0505 17.7523 20.7448 18.6081 19.644 19.6935C18.5431 20.7789 17.6689 22.0723 17.0723 23.4984C16.4756 24.9246 16.1683 26.4552 16.1683 28.0012C16.1683 29.5471 16.4756 31.0777 17.0723 32.5039C17.6689 33.9301 18.5431 35.2235 19.644 36.3089C20.7448 37.3943 22.0505 38.2501 23.4849 38.8265C24.9194 39.4029 26.4542 39.6885 28 39.6667C31.0942 39.6667 34.0617 38.4375 36.2496 36.2496C38.4375 34.0617 39.6667 31.0942 39.6667 28C39.6667 24.9058 38.4375 21.9383 36.2496 19.7504C34.0617 17.5625 31.0942 16.3357 28 16.3357ZM28 21.0023C28.9298 20.9852 29.8538 21.1535 30.7179 21.4975C31.5819 21.8414 32.3688 22.3541 33.0325 23.0056C33.6962 23.6571 34.2234 24.4343 34.5834 25.2918C34.9433 26.1493 35.1288 27.07 35.129 28C35.1291 28.93 34.9439 29.8507 34.5843 30.7083C34.2246 31.566 33.6976 32.3434 33.0341 32.9951C32.3707 33.6467 31.584 34.1597 30.72 34.5039C29.8561 34.8482 28.9322 35.0168 28.0023 35C26.1458 35 24.3653 34.2625 23.0526 32.9497C21.7398 31.637 21.0023 29.8565 21.0023 28C21.0023 26.1435 21.7398 24.363 23.0526 23.0503C24.3653 21.7375 26.1458 21 28.0023 21L28 21.0023ZM40.25 12.8357C39.4972 12.8658 38.7854 13.186 38.2634 13.7293C37.7415 14.2725 37.45 14.9966 37.45 15.75C37.45 16.5034 37.7415 17.2275 38.2634 17.7707C38.7854 18.314 39.4972 18.6342 40.25 18.6643C41.0235 18.6643 41.7654 18.357 42.3124 17.8101C42.8594 17.2631 43.1667 16.5212 43.1667 15.7477C43.1667 14.9741 42.8594 14.2323 42.3124 13.6853C41.7654 13.1383 41.0235 12.831 40.25 12.831V12.8357Z" fill="white"/>
</svg>
