<svg width="71" height="71" viewBox="0 0 71 71" fill="none" xmlns="http://www.w3.org/2000/svg">
<path d="M36.9792 44.375C39.05 44.375 40.8003 43.6601 42.2302 42.2302C43.6601 40.8004 44.375 39.05 44.375 36.9792V20.7084H50.2917C51.1299 20.7084 51.833 20.4244 52.401 19.8564C52.969 19.2884 53.252 18.5862 53.25 17.75C53.25 16.9118 52.966 16.2087 52.398 15.6407C51.83 15.0727 51.1279 14.7897 50.2917 14.7917H44.375C43.5368 14.7917 42.8337 15.0757 42.2657 15.6437C41.6977 16.2117 41.4147 16.9138 41.4167 17.75V31.0625C40.7757 30.5695 40.0854 30.1997 39.3458 29.9531C38.6062 29.7066 37.8174 29.5834 36.9792 29.5834C34.9083 29.5834 33.158 30.2983 31.7281 31.7282C30.2983 33.158 29.5833 34.9084 29.5833 36.9792C29.5833 39.05 30.2983 40.8004 31.7281 42.2302C33.158 43.6601 34.9083 44.375 36.9792 44.375ZM23.6667 53.25C22.0396 53.25 20.6462 52.6702 19.4865 51.5105C18.3269 50.3509 17.748 48.9585 17.75 47.3334V11.8334C17.75 10.2063 18.3298 8.8129 19.4895 7.65323C20.6492 6.49357 22.0416 5.91472 23.6667 5.91669H59.1667C60.7937 5.91669 62.1871 6.49653 63.3468 7.65619C64.5065 8.81586 65.0853 10.2082 65.0833 11.8334V47.3334C65.0833 48.9604 64.5035 50.3538 63.3438 51.5135C62.1842 52.6731 60.7918 53.252 59.1667 53.25H23.6667ZM11.8333 65.0834C10.2062 65.0834 8.81287 64.5035 7.6532 63.3439C6.49354 62.1842 5.91469 60.7918 5.91666 59.1667V20.7084C5.91666 19.8702 6.20066 19.1671 6.76866 18.5991C7.33666 18.0311 8.03877 17.7481 8.87499 17.75C9.71319 17.75 10.4163 18.034 10.9843 18.602C11.5523 19.17 11.8353 19.8721 11.8333 20.7084V59.1667H50.2917C51.1299 59.1667 51.833 59.4507 52.401 60.0187C52.969 60.5867 53.252 61.2888 53.25 62.125C53.25 62.9632 52.966 63.6663 52.398 64.2343C51.83 64.8023 51.1279 65.0853 50.2917 65.0834H11.8333Z" fill="#BF4F51"/>
</svg>
