<svg width="56" height="56" viewBox="0 0 56 56" fill="none" xmlns="http://www.w3.org/2000/svg">
<path d="M26.9733 20.6967V39.6667H47.4133C51.73 39.3633 53.6667 36.7033 53.6667 33.4367C53.6667 29.9833 51.0533 27.2067 47.5533 27.2067C46.6667 27.2067 45.92 27.3933 45.15 27.72C44.59 22.26 39.9467 17.99 34.23 17.99C31.5 17.99 28.91 19.0167 26.9733 20.6967ZM24.92 23.0767C24.22 22.6567 23.4733 22.33 22.6567 22.1667V39.6667H25.9V21.7933C25.55 22.1667 25.2233 22.6333 24.92 23.0767ZM19.4367 21.8167V39.6667H21.5833V21.8867C21.14 21.8167 20.6967 21.7933 20.23 21.7933C19.95 21.7933 19.6933 21.7933 19.4367 21.8167ZM15.1667 23.3333V39.6667H17.29V22.26C16.52 22.5167 15.7967 22.89 15.1667 23.3333ZM11.27 29.1667C11.13 29.1667 10.99 29.0267 10.8267 28.9567V39.6667H12.9733V25.34C12.11 26.46 11.5267 27.79 11.27 29.1667ZM6.50999 28.5133V39.4567C6.99999 39.5967 7.55999 39.6667 8.16666 39.6667H8.67999V28.3267C8.49333 28.3033 8.30666 28.28 8.16666 28.28C7.55999 28.28 6.99999 28.3733 6.50999 28.5133ZM2.33333 33.9733C2.33333 35.7233 3.12666 37.2633 4.36333 38.3133V29.6567C3.12666 30.6833 2.33333 32.2467 2.33333 33.9733Z" fill="white"/>
</svg>
