<svg width="56" height="56" viewBox="0 0 56 56" fill="none" xmlns="http://www.w3.org/2000/svg">
<path d="M52.4067 14C50.61 14.8167 48.6733 15.3533 46.6667 15.61C48.72 14.3733 50.3067 12.4133 51.0533 10.0567C49.1167 11.2233 46.97 12.04 44.7067 12.5067C42.8633 10.5 40.2733 9.33333 37.3333 9.33333C31.85 9.33333 27.37 13.8133 27.37 19.3433C27.37 20.1367 27.4633 20.9067 27.6267 21.63C19.32 21.21 11.9233 17.22 7 11.1767C6.13666 12.6467 5.64666 14.3733 5.64666 16.1933C5.64666 19.67 7.39666 22.75 10.1033 24.5C8.44666 24.5 6.90666 24.0333 5.55333 23.3333V23.4033C5.55333 28.2567 9.00666 32.3167 13.58 33.2267C12.1117 33.6285 10.5702 33.6844 9.07666 33.39C9.71041 35.3791 10.9516 37.1196 12.6257 38.3668C14.2998 39.6141 16.3227 40.3053 18.41 40.3433C14.8718 43.1444 10.486 44.6584 5.97333 44.6367C5.18 44.6367 4.38666 44.59 3.59333 44.4967C8.02666 47.3433 13.3 49 18.9467 49C37.3333 49 47.4367 33.74 47.4367 20.51C47.4367 20.0667 47.4367 19.6467 47.4133 19.2033C49.3733 17.8033 51.0533 16.03 52.4067 14Z" fill="white"/>
</svg>
