<svg width="56" height="56" viewBox="0 0 56 56" fill="none" xmlns="http://www.w3.org/2000/svg">
<path d="M23.3333 35L35.4433 28L23.3333 21V35ZM50.3067 16.73C50.61 17.8267 50.82 19.2967 50.96 21.1633C51.1233 23.03 51.1933 24.64 51.1933 26.04L51.3333 28C51.3333 33.11 50.96 36.8667 50.3067 39.27C49.7233 41.37 48.37 42.7233 46.27 43.3067C45.1733 43.61 43.1667 43.82 40.0867 43.96C37.0533 44.1233 34.2767 44.1933 31.71 44.1933L28 44.3333C18.2233 44.3333 12.1333 43.96 9.73 43.3067C7.63 42.7233 6.27666 41.37 5.69333 39.27C5.39 38.1733 5.18 36.7033 5.04 34.8367C4.87666 32.97 4.80666 31.36 4.80666 29.96L4.66666 28C4.66666 22.89 5.04 19.1333 5.69333 16.73C6.27666 14.63 7.63 13.2767 9.73 12.6933C10.8267 12.39 12.8333 12.18 15.9133 12.04C18.9467 11.8767 21.7233 11.8067 24.29 11.8067L28 11.6667C37.7767 11.6667 43.8667 12.04 46.27 12.6933C48.37 13.2767 49.7233 14.63 50.3067 16.73Z" fill="white"/>
</svg>
